<svg width="223" height="32" viewBox="0 0 223 32" fill="none" xmlns="http://www.w3.org/2000/svg">
<path d="M6.70475 1.312L13.2007 1.536L16.5927 1.408C16.6354 1.64267 16.6567 2.00533 16.6567 2.496C16.6567 2.96533 16.5714 3.30667 16.4007 3.52C16.2514 3.712 15.9954 3.808 15.6327 3.808C15.2701 3.808 14.4914 3.78667 13.2967 3.744C12.4434 10.8907 11.6007 16.0853 10.7687 19.328C10.3847 20.9067 9.86208 22.1013 9.20075 22.912C8.85941 23.3173 8.40075 23.6693 7.82475 23.968C7.24875 24.2453 6.52341 24.384 5.64875 24.384C4.77408 24.384 3.86741 24.096 2.92875 23.52C2.01141 22.9227 1.26475 22.1867 0.688747 21.312L1.58475 20.32C1.84075 20.5547 2.23541 20.8107 2.76875 21.088C3.30208 21.3653 3.76075 21.504 4.14475 21.504C4.78475 21.504 5.33941 20.864 5.80875 19.584C6.29941 18.2827 6.79008 16.0107 7.28075 12.768C7.79275 9.52533 8.04875 6.89067 8.04875 4.864V3.552C6.36341 3.552 5.11541 3.648 4.30475 3.84C4.02741 3.28533 3.83541 2.56 3.72875 1.664C4.26208 1.42933 5.25408 1.312 6.70475 1.312ZM18.482 18.464C18.482 15.7973 19.282 13.696 20.882 12.16C22.5033 10.6027 24.338 9.824 26.386 9.824C27.6447 9.824 28.6793 10.1333 29.49 10.752C30.3007 11.3707 30.706 12.2027 30.706 13.248C30.706 14.272 30.4393 15.136 29.906 15.84C29.394 16.544 28.7647 17.088 28.018 17.472C26.5033 18.2187 25.1167 18.688 23.858 18.88L23.09 18.976C23.2393 20.9813 24.0607 21.984 25.554 21.984C26.066 21.984 26.61 21.856 27.186 21.6C27.762 21.344 28.21 21.088 28.53 20.832L29.01 20.448L29.778 21.472C29.6073 21.7067 29.266 22.016 28.754 22.4C28.242 22.784 27.762 23.104 27.314 23.36C26.0767 24.0427 24.722 24.384 23.25 24.384C21.778 24.384 20.6153 23.8613 19.762 22.816C18.9087 21.7707 18.482 20.32 18.482 18.464ZM23.058 17.408C24.146 17.216 25.01 16.7573 25.65 16.032C26.29 15.3067 26.61 14.368 26.61 13.216C26.61 12.064 26.2687 11.488 25.586 11.488C24.7753 11.488 24.146 12.1813 23.698 13.568C23.2713 14.9333 23.058 16.2133 23.058 17.408ZM35.2952 21.376L35.6472 13.024C35.6472 12.2987 35.2632 11.552 34.4952 10.784L34.5592 10.4C34.7086 10.3573 34.8472 10.3253 34.9752 10.304C35.1246 10.2613 35.2846 10.2187 35.4552 10.176C35.6472 10.1333 35.8606 10.0907 36.0952 10.048C36.3299 10.0053 36.5752 9.96267 36.8312 9.92C37.4286 9.856 37.9832 9.824 38.4952 9.824C39.0286 9.824 39.4766 10.0373 39.8392 10.464C40.2232 10.8907 40.4152 11.5733 40.4152 12.512C40.4152 13.4293 40.2659 14.752 39.9672 16.48C39.6899 18.1867 39.5512 19.4667 39.5512 20.32C39.5512 21.152 39.7539 21.568 40.1592 21.568C40.8206 21.568 41.5459 21.152 42.3352 20.32C42.3566 19.9787 42.4952 18.8907 42.7512 17.056C43.0072 15.2213 43.1352 13.888 43.1352 13.056C43.1352 12.224 43.0712 11.5093 42.9432 10.912C44.5859 10.2933 46.0579 9.984 47.3592 9.984C47.6366 10.176 47.7752 10.8053 47.7752 11.872C47.7752 12.9173 47.5939 14.3787 47.2312 16.256C46.8686 18.112 46.6872 19.4667 46.6872 20.32C46.6872 21.152 46.8579 21.568 47.1992 21.568C48.0099 21.568 48.8952 20.9707 49.8552 19.776C50.8152 18.56 51.3272 17.5467 51.3912 16.736L49.2152 14.304C49.3006 13.3867 49.5246 12.5547 49.8872 11.808C50.2499 11.0613 50.5912 10.5387 50.9112 10.24L51.3592 9.824C52.2766 9.824 52.9699 10.0693 53.4392 10.56C53.9086 11.0507 54.1432 11.6267 54.1432 12.288C54.1432 13.9733 53.7272 15.7547 52.8953 17.632C52.0632 19.5093 50.9432 21.1093 49.5352 22.432C48.1272 23.7333 46.6979 24.384 45.2472 24.384C44.5219 24.384 43.9032 24.1813 43.3912 23.776C42.9006 23.3493 42.5699 22.8053 42.3992 22.144C40.9059 23.6373 39.4552 24.384 38.0472 24.384C37.1086 24.384 36.4152 24.096 35.9672 23.52C35.5192 22.9227 35.2952 22.208 35.2952 21.376ZM57.632 18.464C57.632 15.7973 58.432 13.696 60.032 12.16C61.6533 10.6027 63.488 9.824 65.536 9.824C66.7947 9.824 67.8293 10.1333 68.64 10.752C69.4507 11.3707 69.856 12.2027 69.856 13.248C69.856 14.272 69.5893 15.136 69.056 15.84C68.544 16.544 67.9147 17.088 67.168 17.472C65.6533 18.2187 64.2667 18.688 63.008 18.88L62.24 18.976C62.3893 20.9813 63.2107 21.984 64.704 21.984C65.216 21.984 65.76 21.856 66.336 21.6C66.912 21.344 67.36 21.088 67.68 20.832L68.16 20.448L68.928 21.472C68.7573 21.7067 68.416 22.016 67.904 22.4C67.392 22.784 66.912 23.104 66.464 23.36C65.2267 24.0427 63.872 24.384 62.4 24.384C60.928 24.384 59.7653 23.8613 58.912 22.816C58.0587 21.7707 57.632 20.32 57.632 18.464ZM62.208 17.408C63.296 17.216 64.16 16.7573 64.8 16.032C65.44 15.3067 65.76 14.368 65.76 13.216C65.76 12.064 65.4187 11.488 64.736 11.488C63.9253 11.488 63.296 12.1813 62.848 13.568C62.4213 14.9333 62.208 16.2133 62.208 17.408ZM76.2053 24.384C75.4799 24.384 74.8719 24.1387 74.3813 23.648C73.9119 23.1573 73.6773 22.4747 73.6773 21.6C73.6773 20.704 74.1999 17.8773 75.2453 13.12C76.3119 8.34133 76.8453 4.896 76.8453 2.784L76.6533 1.376C78.3173 0.799999 79.8746 0.511999 81.3253 0.511999C81.5386 0.810666 81.6453 1.33333 81.6453 2.08C81.6453 3.78667 81.1013 7.09333 80.0133 12C78.9466 16.8853 78.4133 19.7333 78.4133 20.544C78.4133 21.3333 78.5093 21.728 78.7013 21.728L80.9413 20.928L81.5173 22.048C80.7919 22.624 79.9066 23.1573 78.8613 23.648C77.8373 24.1387 76.9519 24.384 76.2053 24.384ZM87.9052 24.384C87.1799 24.384 86.5719 24.1387 86.0812 23.648C85.6119 23.1573 85.3772 22.4747 85.3772 21.6C85.3772 20.704 85.8999 17.8773 86.9452 13.12C88.0119 8.34133 88.5452 4.896 88.5452 2.784L88.3532 1.376C90.0172 0.799999 91.5746 0.511999 93.0252 0.511999C93.2386 0.810666 93.3452 1.33333 93.3452 2.08C93.3452 3.78667 92.8012 7.09333 91.7132 12C90.6466 16.8853 90.1132 19.7333 90.1132 20.544C90.1132 21.3333 90.2092 21.728 90.4012 21.728L92.6412 20.928L93.2172 22.048C92.4919 22.624 91.6066 23.1573 90.5612 23.648C89.5372 24.1387 88.6519 24.384 87.9052 24.384ZM97.0132 18.464C97.0132 15.7973 97.8132 13.696 99.4132 12.16C101.035 10.6027 102.869 9.824 104.917 9.824C106.176 9.824 107.211 10.1333 108.021 10.752C108.832 11.3707 109.237 12.2027 109.237 13.248C109.237 14.272 108.971 15.136 108.437 15.84C107.925 16.544 107.296 17.088 106.549 17.472C105.035 18.2187 103.648 18.688 102.389 18.88L101.621 18.976C101.771 20.9813 102.592 21.984 104.085 21.984C104.597 21.984 105.141 21.856 105.717 21.6C106.293 21.344 106.741 21.088 107.061 20.832L107.541 20.448L108.309 21.472C108.139 21.7067 107.797 22.016 107.285 22.4C106.773 22.784 106.293 23.104 105.845 23.36C104.608 24.0427 103.253 24.384 101.781 24.384C100.309 24.384 99.1466 23.8613 98.2932 22.816C97.4399 21.7707 97.0132 20.32 97.0132 18.464ZM101.589 17.408C102.677 17.216 103.541 16.7573 104.181 16.032C104.821 15.3067 105.141 14.368 105.141 13.216C105.141 12.064 104.8 11.488 104.117 11.488C103.307 11.488 102.677 12.1813 102.229 13.568C101.803 14.9333 101.589 16.2133 101.589 17.408ZM113.762 24.096H113.538C113.496 23.9253 113.474 23.5413 113.474 22.944C113.474 22.3253 113.762 20.6827 114.338 18.016C114.914 15.3493 115.202 13.824 115.202 13.44C115.202 12.7787 114.904 12.0533 114.306 11.264L114.018 10.88L114.05 10.464C115.202 10.144 117.048 9.984 119.586 9.984C119.842 10.5387 119.97 11.3173 119.97 12.32C120.205 11.936 120.696 11.424 121.442 10.784C122.189 10.144 122.957 9.824 123.746 9.824C124.898 9.824 125.474 10.8267 125.474 12.832C125.368 12.96 125.218 13.1307 125.026 13.344C124.856 13.536 124.493 13.8133 123.938 14.176C123.405 14.5387 122.882 14.7627 122.37 14.848C122.349 14.848 122.168 14.56 121.826 13.984C121.485 13.408 121.229 13.12 121.058 13.12C120.525 13.312 120.056 13.632 119.65 14.08C118.669 18.496 118.178 21.3547 118.178 22.656C118.178 23.1253 118.189 23.456 118.21 23.648C117.464 23.9467 115.981 24.096 113.762 24.096ZM132.081 27.456C131.377 27.8827 131.025 28.2987 131.025 28.704C131.025 29.1093 131.249 29.312 131.697 29.312C132.166 29.312 132.689 29.088 133.265 28.64C133.841 28.2133 134.321 27.5093 134.705 26.528C133.681 26.72 132.806 27.0293 132.081 27.456ZM130.545 24.128C128.753 24.128 127.857 23.1467 127.857 21.184C127.857 20.7147 128.07 19.36 128.497 17.12C128.923 14.88 129.137 13.0133 129.137 11.52C129.137 11.2 129.094 10.9013 129.009 10.624C130.161 10.176 131.739 9.952 133.745 9.952C133.851 10.2507 133.905 10.7627 133.905 11.488C133.905 12.2133 133.67 13.7173 133.201 16C132.731 18.2827 132.497 19.7547 132.497 20.416C132.497 21.0773 132.774 21.408 133.329 21.408C133.99 21.408 134.79 21.0773 135.729 20.416C135.835 19.1573 136.262 15.84 137.009 10.464C137.755 10.1653 139.099 10.016 141.041 10.016H141.649C141.243 11.616 140.849 13.92 140.465 16.928C140.081 19.936 139.771 22.0267 139.537 23.2C139.089 25.5467 138.257 27.456 137.041 28.928C135.846 30.4213 134.278 31.168 132.337 31.168C131.569 31.168 130.865 30.9653 130.225 30.56C129.606 30.1547 129.297 29.632 129.297 28.992C129.297 28.1387 129.819 27.36 130.865 26.656C131.91 25.952 133.318 25.408 135.089 25.024C135.281 24.0853 135.43 23.1787 135.537 22.304C133.809 23.52 132.145 24.128 130.545 24.128ZM168.024 17.728C168.024 19.776 167.245 21.3973 165.688 22.592C164.131 23.7867 162.243 24.384 160.024 24.384C158.531 24.384 157.293 24.0107 156.312 23.264C155.352 22.496 154.819 21.8453 154.712 21.312C154.947 20.608 155.448 19.8187 156.216 18.944C156.984 18.0693 157.677 17.536 158.296 17.344C159.384 18.048 160.397 19.616 161.336 22.048C162.723 22.0053 163.416 21.248 163.416 19.776C163.416 18.9653 163.085 17.9733 162.424 16.8C161.784 15.6053 161.08 14.496 160.312 13.472C159.544 12.4267 158.829 11.264 158.168 9.984C157.528 8.68267 157.208 7.53067 157.208 6.528C157.208 4.90667 157.859 3.62667 159.16 2.688C160.483 1.74933 161.965 1.28 163.608 1.28C165.251 1.28 166.52 1.632 167.416 2.336C168.333 3.04 168.792 3.84 168.792 4.736C168.792 5.632 168.451 6.54933 167.768 7.488C167.085 8.42667 166.403 9.17333 165.72 9.728L164.696 10.56C164.952 10.9013 165.261 11.3387 165.624 11.872C165.987 12.4053 166.477 13.312 167.096 14.592C167.715 15.872 168.024 16.9173 168.024 17.728ZM165.56 7.232C165.859 6.95467 166.125 6.624 166.36 6.24C166.595 5.83467 166.712 5.41867 166.712 4.992C166.712 4.544 166.456 4.17067 165.944 3.872C165.432 3.57333 164.813 3.424 164.088 3.424C163.384 3.424 162.787 3.59467 162.296 3.936C161.827 4.256 161.592 4.65067 161.592 5.12C161.592 5.568 161.741 6.10133 162.04 6.72C162.36 7.31733 162.669 7.81867 162.968 8.224L163.448 8.832C163.661 8.72533 163.992 8.50133 164.44 8.16C164.909 7.81867 165.283 7.50933 165.56 7.232ZM176.916 2.88C176.916 2.176 176.852 1.67467 176.724 1.376C178.388 0.799999 179.956 0.511999 181.428 0.511999C181.62 0.703999 181.716 1.19467 181.716 1.984C181.716 3.392 181.119 6.63467 179.924 11.712C181.652 10.4533 183.167 9.824 184.468 9.824C185.279 9.824 185.887 10.08 186.292 10.592C186.719 11.104 186.932 11.7867 186.932 12.64C186.932 13.472 186.687 14.848 186.196 16.768C185.706 18.6667 185.46 19.968 185.46 20.672C185.46 21.376 185.546 21.728 185.716 21.728C185.887 21.728 186.335 21.536 187.06 21.152L187.444 20.96L188.02 22.08C187.828 22.2507 187.572 22.464 187.252 22.72C186.932 22.976 186.346 23.3173 185.492 23.744C184.639 24.1707 183.85 24.384 183.124 24.384C182.42 24.384 181.855 24.16 181.428 23.712C181.002 23.2427 180.788 22.624 180.788 21.856C180.788 21.0667 181.023 19.648 181.492 17.6C181.983 15.5307 182.228 14.2293 182.228 13.696C182.228 13.1413 182.004 12.864 181.556 12.864C181.002 12.864 180.308 13.0987 179.476 13.568C178.303 18.7307 177.716 22.08 177.716 23.616C176.82 23.9573 175.295 24.128 173.14 24.128C173.119 23.7653 173.108 23.4453 173.108 23.168C173.108 22.2507 173.738 19.1147 174.996 13.76C176.276 8.40533 176.916 4.77867 176.916 2.88ZM196.727 24.384C195.255 24.384 194.103 23.872 193.271 22.848C192.439 21.8027 192.023 20.352 192.023 18.496C192.023 16.128 192.653 14.0907 193.911 12.384C195.191 10.6773 196.951 9.824 199.191 9.824L200.343 9.888C200.706 9.696 201.111 9.6 201.559 9.6C203.245 9.6 204.087 11.1893 204.087 14.368C204.962 14.3253 205.847 14.208 206.743 14.016L207.255 13.888L207.447 15.136C206.743 15.4347 205.794 15.7013 204.599 15.936L203.959 16.064C203.554 18.304 202.733 20.256 201.495 21.92C200.258 23.5627 198.669 24.384 196.727 24.384ZM198.455 21.632C199.351 21.632 200.151 21.056 200.855 19.904C201.581 18.752 202.082 17.536 202.359 16.256C200.077 16.256 198.935 15.4027 198.935 13.696C198.935 13.0133 199.074 12.3733 199.351 11.776L199.511 11.456C199.426 11.4133 199.319 11.392 199.191 11.392C199.063 11.392 198.967 11.4133 198.903 11.456C198.37 11.7973 197.869 12.5973 197.399 13.856C196.93 15.1147 196.695 16.5547 196.695 18.176C196.695 20.48 197.282 21.632 198.455 21.632ZM207.613 31.168C207.507 30.912 207.453 30.3467 207.453 29.472C207.453 28.5973 207.869 26.2507 208.701 22.432C209.533 18.592 209.949 15.6373 209.949 13.568C209.949 13.1627 209.853 12.736 209.661 12.288C209.469 11.8187 209.267 11.456 209.053 11.2L208.765 10.848L208.797 10.432C209.8 10.112 211.571 9.952 214.109 9.952C214.344 10.4 214.493 11.0293 214.557 11.84C216.2 10.496 217.565 9.824 218.653 9.824C219.763 9.824 220.648 10.2827 221.309 11.2C221.992 12.1173 222.333 13.4613 222.333 15.232C222.333 18.3253 221.768 20.6293 220.637 22.144C219.507 23.6373 218.077 24.384 216.349 24.384C215.453 24.384 214.707 24.256 214.109 24L213.789 23.872L214.013 22.624C214.205 22.6667 214.429 22.688 214.685 22.688C215.24 22.688 215.72 22.432 216.125 21.92C216.552 21.408 216.872 20.7573 217.085 19.968C217.512 18.3893 217.725 16.928 217.725 15.584C217.725 13.664 217.331 12.704 216.541 12.704C215.923 12.704 215.261 12.9493 214.557 13.44C214.472 14.9333 214.035 17.5467 213.245 21.28C212.456 25.0133 212.061 28.0213 212.061 30.304C210.909 30.7733 209.427 31.0613 207.613 31.168Z" fill="#261340"/>
</svg>
