<svg width="203" height="146" viewBox="0 0 203 146" fill="none" xmlns="http://www.w3.org/2000/svg">
<ellipse opacity="0.9" cx="5.26159" cy="4.82244" rx="4.27136" ry="4.21795" fill="#261340"/>
<ellipse opacity="0.9" cx="5.26147" cy="39.0627" rx="4.27136" ry="4.21795" fill="#261340"/>
<ellipse opacity="0.9" cx="5.26147" cy="73.3019" rx="4.27136" ry="4.21795" fill="#261340"/>
<ellipse opacity="0.9" cx="5.26153" cy="107.542" rx="4.27136" ry="4.21795" fill="#261340"/>
<ellipse opacity="0.9" cx="5.26147" cy="141.781" rx="4.27136" ry="4.21795" fill="#261340"/>
<ellipse opacity="0.9" cx="43.9548" cy="4.82244" rx="4.27136" ry="4.21795" fill="#261340"/>
<ellipse opacity="0.9" cx="43.9548" cy="39.0627" rx="4.27136" ry="4.21795" fill="#261340"/>
<ellipse opacity="0.9" cx="43.9548" cy="73.3019" rx="4.27136" ry="4.21795" fill="#261340"/>
<ellipse opacity="0.9" cx="43.9548" cy="107.542" rx="4.27136" ry="4.21795" fill="#261340"/>
<ellipse opacity="0.9" cx="43.9548" cy="141.781" rx="4.27136" ry="4.21795" fill="#261340"/>
<ellipse opacity="0.9" cx="82.6479" cy="4.82244" rx="4.27136" ry="4.21795" fill="#261340"/>
<ellipse opacity="0.9" cx="82.6479" cy="39.0627" rx="4.27136" ry="4.21795" fill="#261340"/>
<ellipse opacity="0.9" cx="82.6479" cy="73.3019" rx="4.27136" ry="4.21795" fill="#261340"/>
<ellipse opacity="0.9" cx="82.6479" cy="107.542" rx="4.27136" ry="4.21795" fill="#261340"/>
<ellipse opacity="0.9" cx="82.6479" cy="141.781" rx="4.27136" ry="4.21795" fill="#261340"/>
<ellipse opacity="0.9" cx="121.342" cy="4.82244" rx="4.27136" ry="4.21795" fill="#261340"/>
<ellipse opacity="0.9" cx="121.342" cy="39.0627" rx="4.27136" ry="4.21795" fill="#261340"/>
<ellipse opacity="0.9" cx="121.342" cy="73.3019" rx="4.27136" ry="4.21795" fill="#261340"/>
<ellipse opacity="0.9" cx="121.342" cy="107.542" rx="4.27136" ry="4.21795" fill="#261340"/>
<ellipse opacity="0.9" cx="121.342" cy="141.781" rx="4.27136" ry="4.21795" fill="#261340"/>
<ellipse opacity="0.9" cx="160.035" cy="4.82244" rx="4.27136" ry="4.21795" fill="#261340"/>
<ellipse opacity="0.9" cx="160.035" cy="39.0627" rx="4.27136" ry="4.21795" fill="#261340"/>
<ellipse opacity="0.9" cx="160.035" cy="73.3019" rx="4.27136" ry="4.21795" fill="#261340"/>
<ellipse opacity="0.9" cx="160.035" cy="107.542" rx="4.27136" ry="4.21795" fill="#261340"/>
<ellipse opacity="0.9" cx="160.035" cy="141.781" rx="4.27136" ry="4.21795" fill="#261340"/>
<ellipse opacity="0.9" cx="198.729" cy="4.82244" rx="4.27136" ry="4.21795" fill="#261340"/>
<ellipse opacity="0.9" cx="198.729" cy="39.0627" rx="4.27136" ry="4.21795" fill="#261340"/>
<ellipse opacity="0.9" cx="198.729" cy="73.3019" rx="4.27136" ry="4.21795" fill="#261340"/>
<ellipse opacity="0.9" cx="198.729" cy="107.542" rx="4.27136" ry="4.21795" fill="#261340"/>
<ellipse opacity="0.9" cx="198.729" cy="141.781" rx="4.27136" ry="4.21795" fill="#261340"/>
</svg>
